<svg xmlns="http://www.w3.org/2000/svg" width="397.3713073730469" height="326.8170166015625" viewBox="-101.22521209716797 -38.43693542480469 397.3713073730469 326.8170166015625"><title>Neo4j Graph Visualization</title><desc>Created using Neo4j (http://www.neo4j.com/)</desc><g class="layer relationships"><g class="relationship" transform="translate(267.14608742226324 145.13442576697432) rotate(520.7518125700522)"><path class="outline" fill="#A5ABB6" stroke="none" d="M 25 0.5 L 37.82568190056953 0.5 L 37.82568190056953 -0.5 L 25 -0.5 Z M 72.27099440056952 0.5 L 85.09667630113906 0.5 L 85.09667630113906 3.5 L 92.09667630113906 0 L 85.09667630113906 -3.5 L 85.09667630113906 -0.5 L 72.27099440056952 -0.5 Z"/><text text-anchor="middle" pointer-events="none" font-size="8px" fill="#000000" x="55.04833815056953" y="3" transform="rotate(180 55.04833815056953 0)" font-family="sans-serif">ORIGIN</text></g><g class="relationship" transform="translate(267.14608742226324 145.13442576697432) rotate(259.6818546284963)"><path class="outline" fill="#A5ABB6" stroke="none" d="M 25 0.5 L 25.567856853459126 0.5 L 25.567856853459126 -0.5 L 25 -0.5 Z M 80.75535685345912 0.5 L 81.32321370691825 0.5 L 81.32321370691825 3.5 L 88.32321370691825 0 L 81.32321370691825 -3.5 L 81.32321370691825 -0.5 L 80.75535685345912 -0.5 Z"/><text text-anchor="middle" pointer-events="none" font-size="8px" fill="#000000" x="53.161606853459126" y="3" transform="rotate(180 53.161606853459126 0)" font-family="sans-serif">DESTINATI…</text></g><g class="relationship" transform="translate(137.13476954033928 81.93905028030738) rotate(336.2412100586938)"><path class="outline" fill="#A5ABB6" stroke="none" d="M 25 0.5 L 39.213757144865305 0.5 L 39.213757144865305 -0.5 L 25 -0.5 Z M 73.6590696448653 0.5 L 87.87282678973061 0.5 L 87.87282678973061 3.5 L 94.87282678973061 0 L 87.87282678973061 -3.5 L 87.87282678973061 -0.5 L 73.6590696448653 -0.5 Z"/><text text-anchor="middle" pointer-events="none" font-size="8px" fill="#000000" x="56.436413394865305" y="3" font-family="sans-serif">ORIGIN</text></g><g class="relationship" transform="translate(137.13476954033928 81.93905028030738) rotate(506.54481209048447)"><path class="outline" fill="#A5ABB6" stroke="none" d="M 25 0.5 L 37.14129766884244 0.5 L 37.14129766884244 -0.5 L 25 -0.5 Z M 96.32879766884244 0.5 L 108.47009533768488 0.5 L 108.47009533768488 3.5 L 115.47009533768488 0 L 108.47009533768488 -3.5 L 108.47009533768488 -0.5 L 96.32879766884244 -0.5 Z"/><text text-anchor="middle" pointer-events="none" font-size="8px" fill="#000000" x="66.73504766884244" y="3" transform="rotate(180 66.73504766884244 0)" font-family="sans-serif">DESTINATION</text></g><g class="relationship" transform="translate(71.59028882226102 72.41644171844244) rotate(412.63438248229784)"><path class="outline" fill="#A5ABB6" stroke="none" d="M 25 0.5 L 49.309498390599714 0.5 L 49.309498390599714 -0.5 L 25 -0.5 Z M 83.75481089059971 0.5 L 108.06430928119943 0.5 L 108.06430928119943 3.5 L 115.06430928119943 0 L 108.06430928119943 -3.5 L 108.06430928119943 -0.5 L 83.75481089059971 -0.5 Z"/><text text-anchor="middle" pointer-events="none" font-size="8px" fill="#000000" x="66.53215464059971" y="3" font-family="sans-serif">ORIGIN</text></g><g class="relationship" transform="translate(71.59028882226102 72.41644171844244) rotate(223.25382570627136)"><path class="outline" fill="#A5ABB6" stroke="none" d="M 25 0.5 L 26.63304347859114 0.5 L 26.63304347859114 -0.5 L 25 -0.5 Z M 85.82054347859113 0.5 L 87.45358695718228 0.5 L 87.45358695718228 3.5 L 94.45358695718228 0 L 87.45358695718228 -3.5 L 87.45358695718228 -0.5 L 85.82054347859113 -0.5 Z"/><text text-anchor="middle" pointer-events="none" font-size="8px" fill="#000000" x="56.22679347859114" y="3" transform="rotate(180 56.22679347859114 0)" font-family="sans-serif">DESTINATION</text></g><g class="relationship" transform="translate(-72.22521160999037 88.0661093905881) rotate(300.22909972014196)"><path class="outline" fill="#A5ABB6" stroke="none" d="M 25 0.5 L 35.7014610513499 0.5 L 35.7014610513499 -0.5 L 25 -0.5 Z M 70.1467735513499 0.5 L 80.8482346026998 0.5 L 80.8482346026998 3.5 L 87.8482346026998 0 L 80.8482346026998 -3.5 L 80.8482346026998 -0.5 L 70.1467735513499 -0.5 Z"/><text text-anchor="middle" pointer-events="none" font-size="8px" fill="#000000" x="52.9241173013499" y="3" font-family="sans-serif">ORIGIN</text></g><g class="relationship" transform="translate(-72.22521160999037 88.0661093905881) rotate(397.73112457267507)"><path class="outline" fill="#A5ABB6" stroke="none" d="M 25 0.5 L 25.17175840908984 0.5 L 25.17175840908984 -0.5 L 25 -0.5 Z M 84.35925840908985 0.5 L 84.53101681817968 0.5 L 84.53101681817968 3.5 L 91.53101681817968 0 L 84.53101681817968 -3.5 L 84.53101681817968 -0.5 L 84.35925840908985 -0.5 Z"/><text text-anchor="middle" pointer-events="none" font-size="8px" fill="#000000" x="54.76550840908984" y="3" font-family="sans-serif">DESTINATION</text></g><g class="relationship" transform="translate(71.84952963968318 259.38009882871546) rotate(318.2480782379132)"><path class="outline" fill="#A5ABB6" stroke="none" d="M 25 0.5 L 36.07470951834632 0.5 L 36.07470951834632 -0.5 L 25 -0.5 Z M 70.52002201834631 0.5 L 81.59473153669263 0.5 L 81.59473153669263 3.5 L 88.59473153669263 0 L 81.59473153669263 -3.5 L 81.59473153669263 -0.5 L 70.52002201834631 -0.5 Z"/><text text-anchor="middle" pointer-events="none" font-size="8px" fill="#000000" x="53.29736576834632" y="3" font-family="sans-serif">ORIGIN</text></g><g class="relationship" transform="translate(71.84952963968318 259.38009882871546) rotate(242.56602874961652)"><path class="outline" fill="#A5ABB6" stroke="none" d="M 25 0.5 L 25.2427409187912 0.5 L 25.2427409187912 -0.5 L 25 -0.5 Z M 80.4302409187912 0.5 L 80.6729818375824 0.5 L 80.6729818375824 3.5 L 87.6729818375824 0 L 80.6729818375824 -3.5 L 80.6729818375824 -0.5 L 80.4302409187912 -0.5 Z"/><text text-anchor="middle" pointer-events="none" font-size="8px" fill="#000000" x="52.8364909187912" y="3" transform="rotate(180 52.8364909187912 0)" font-family="sans-serif">DESTINATI…</text></g></g><g class="layer nodes"><g class="node" transform="translate(156.5951797543673,183.73660724131707)"><circle class="outline" cx="0" cy="0" r="25" fill="#ECB5C9" stroke="#da7298" stroke-width="2px"/><text text-anchor="middle" pointer-events="none" font-family="sans-serif" dy="1.5625" font-size="25" fill="#2A2C34"/><text text-anchor="middle" pointer-events="none" x="0" y="5" font-size="10px" fill="#2A2C34" font-family="sans-serif"> LAX</text></g><g class="node" transform="translate(19.93814629616674,159.3780532719637)"><circle class="outline" cx="0" cy="0" r="25" fill="#ECB5C9" stroke="#da7298" stroke-width="2px"/><text text-anchor="middle" pointer-events="none" font-family="sans-serif" dy="1.5625" font-size="25" fill="#2A2C34"/><text text-anchor="middle" pointer-events="none" x="0" y="5" font-size="10px" fill="#2A2C34" font-family="sans-serif"> DAY</text></g><g class="node" transform="translate(267.14608742226324,145.13442576697432)"><circle class="outline" cx="0" cy="0" r="25" fill="#4C8EDA" stroke="#2870c2" stroke-width="2px"/><text text-anchor="middle" pointer-events="none" font-family="sans-serif" dy="1.5625" font-size="25" fill="#FFFFFF"/><text text-anchor="middle" pointer-events="none" x="0" y="5" font-size="10px" fill="#FFFFFF" font-family="sans-serif"> 15/30/20…</text></g><g class="node" transform="translate(246.8483360924481,33.64383398534974)"><circle class="outline" cx="0" cy="0" r="25" fill="#ECB5C9" stroke="#da7298" stroke-width="2px"/><text text-anchor="middle" pointer-events="none" font-family="sans-serif" dy="1.5625" font-size="25" fill="#2A2C34"/><text text-anchor="middle" pointer-events="none" x="0" y="5" font-size="10px" fill="#2A2C34" font-family="sans-serif"> DFW</text></g><g class="node" transform="translate(137.13476954033928,81.93905028030738)"><circle class="outline" cx="0" cy="0" r="25" fill="#4C8EDA" stroke="#2870c2" stroke-width="2px"/><text text-anchor="middle" pointer-events="none" font-family="sans-serif" dy="1.5625" font-size="25" fill="#FFFFFF"/><text text-anchor="middle" pointer-events="none" x="0" y="5" font-size="10px" fill="#FFFFFF" font-family="sans-serif"> 15/30/20…</text></g><g class="node" transform="translate(71.59028882226102,72.41644171844244)"><circle class="outline" cx="0" cy="0" r="25" fill="#4C8EDA" stroke="#2870c2" stroke-width="2px"/><text text-anchor="middle" pointer-events="none" font-family="sans-serif" dy="1.5625" font-size="25" fill="#FFFFFF"/><text text-anchor="middle" pointer-events="none" x="0" y="5" font-size="10px" fill="#FFFFFF" font-family="sans-serif"> 12/30/20…</text></g><g class="node" transform="translate(-15.410770913932046,-9.436933543158576)"><circle class="outline" cx="0" cy="0" r="25" fill="#ECB5C9" stroke="#da7298" stroke-width="2px"/><text text-anchor="middle" pointer-events="none" font-family="sans-serif" dy="1.5625" font-size="25" fill="#2A2C34"/><text text-anchor="middle" pointer-events="none" x="0" y="5" font-size="10px" fill="#2A2C34" font-family="sans-serif"> ORD</text></g><g class="node" transform="translate(-72.22521160999037,88.0661093905881)"><circle class="outline" cx="0" cy="0" r="25" fill="#4C8EDA" stroke="#2870c2" stroke-width="2px"/><text text-anchor="middle" pointer-events="none" font-family="sans-serif" dy="1.5625" font-size="25" fill="#FFFFFF"/><text text-anchor="middle" pointer-events="none" x="0" y="5" font-size="10px" fill="#FFFFFF" font-family="sans-serif"> 12/30/20…</text></g><g class="node" transform="translate(71.84952963968318,259.38009882871546)"><circle class="outline" cx="0" cy="0" r="25" fill="#4C8EDA" stroke="#2870c2" stroke-width="2px"/><text text-anchor="middle" pointer-events="none" font-family="sans-serif" dy="1.5625" font-size="25" fill="#FFFFFF"/><text text-anchor="middle" pointer-events="none" x="0" y="5" font-size="10px" fill="#FFFFFF" font-family="sans-serif"> 13/30/20…</text></g></g></svg>