<svg xmlns="http://www.w3.org/2000/svg" width="238.58465576171875" height="228.745361328125" viewBox="-25.62940216064453 -15.243452072143555 238.58465576171875 228.745361328125"><title>Neo4j Graph Visualization</title><desc>Created using Neo4j (http://www.neo4j.com/)</desc><g class="layer relationships"><g class="relationship" transform="translate(167.47004768342347 184.501906741531) rotate(278.9685834749331)"><path class="outline" fill="#A5ABB6" stroke="none" d="M 21.40063509461097,12.933012701892217 L 21.90063509461097,12.06698729810778 A 58.17263220416943 58.17263220416943 0 0 0 38.35589688997172,18.472793218298733 L 38.13876636264071,19.4489357970755 A 59.17263220416943 59.17263220416943 0 0 1 21.40063509461097,12.933012701892217 Z M 60.19730370026007,20.139441199170044 L 60.04165146441251,19.15162928312749 A 58.17263220416943 58.17263220416943 0 0 0 76.8653492394641,13.787565206819657 L 75.53078363384,11.100757687795419 L 83.35699438479134,11.12138004686747 L 78.64477004696289,17.369975232185308 L 77.3102044413388,14.683167713161069 A 59.17263220416943 59.17263220416943 0 0 1 60.19730370026007,20.139441199170044"/><text text-anchor="middle" pointer-events="none" font-size="8px" fill="#000000" x="49.151202353803455" y="23.331916729126817" font-family="sans-serif">road</text></g><g class="relationship" transform="translate(183.95525995285016 80.04771654431333) rotate(219.01137168446377)"><path class="outline" fill="#A5ABB6" stroke="none" d="M 25 0.5 L 39.48798138917255 0.5 L 39.48798138917255 -0.5 L 25 -0.5 Z M 58.82391888917255 0.5 L 73.3119002783451 0.5 L 73.3119002783451 3.5 L 80.3119002783451 0 L 73.3119002783451 -3.5 L 73.3119002783451 -0.5 L 58.82391888917255 -0.5 Z"/><text text-anchor="middle" pointer-events="none" font-size="8px" fill="#000000" x="49.15595013917255" y="3" transform="rotate(180 49.15595013917255 0)" font-family="sans-serif">trek</text></g><g class="relationship" transform="translate(102.12569737571773 13.756547987172386) rotate(519.0729237566715)"><path class="outline" fill="#A5ABB6" stroke="none" d="M 25 0.5 L 39.696761469697094 0.5 L 39.696761469697094 -0.5 L 25 -0.5 Z M 59.032698969697094 0.5 L 73.72946043939419 0.5 L 73.72946043939419 3.5 L 80.72946043939419 0 L 73.72946043939419 -3.5 L 73.72946043939419 -0.5 L 59.032698969697094 -0.5 Z"/><text text-anchor="middle" pointer-events="none" font-size="8px" fill="#000000" x="49.364730219697094" y="3" transform="rotate(180 49.364730219697094 0)" font-family="sans-serif">trek</text></g><g class="relationship" transform="translate(167.47004768342347 184.501906741531) rotate(278.9685834749331)"><path class="outline" fill="#A5ABB6" stroke="none" d="M 25 0.5 L 39.705559771663324 0.5 L 39.705559771663324 -0.5 L 25 -0.5 Z M 59.041497271663324 0.5 L 73.74705704332665 0.5 L 73.74705704332665 3.5 L 80.74705704332665 0 L 73.74705704332665 -3.5 L 73.74705704332665 -0.5 L 59.041497271663324 -0.5 Z"/><text text-anchor="middle" pointer-events="none" font-size="8px" fill="#000000" x="49.373528521663324" y="3" font-family="sans-serif">trek</text></g><g class="relationship" transform="translate(167.47004768342347 184.501906741531) rotate(278.9685834749331)"><path class="outline" fill="#A5ABB6" stroke="none" d="M 21.40063509461097,-12.933012701892217 L 21.90063509461097,-12.06698729810778 A 58.17263220416943 58.17263220416943 0 0 1 22.689078742020968,-12.51404223286712 L 22.202632257093878,-13.387752606676472 A 59.17263220416943 59.17263220416943 0 0 0 21.40063509461097,-12.933012701892217 Z M 76.4813356252617,-15.086856102105806 L 76.05048806146566,-14.184431381272532 A 58.17263220416943 58.17263220416943 0 0 1 76.8653492394641,-13.787565206819657 L 75.53078363384,-11.100757687795419 L 83.35699438479134,-11.12138004686747 L 78.64477004696289,-17.369975232185308 L 77.3102044413388,-14.683167713161069 A 59.17263220416943 59.17263220416943 0 0 0 76.4813356252617,-15.086856102105806"/><text text-anchor="middle" pointer-events="none" font-size="8px" fill="#000000" x="49.15120235380345" y="-17.331916729126817" font-family="sans-serif">PublicTrans…</text></g></g><g class="layer nodes"><g class="node" transform="translate(167.47004768342347,184.501906741531)"><circle class="outline" cx="0" cy="0" r="25" fill="#F16667" stroke="#eb2728" stroke-width="2px"/><text text-anchor="middle" pointer-events="none" font-family="sans-serif" dy="1.5625" font-size="25" fill="#FFFFFF"/><text text-anchor="middle" pointer-events="none" y="5" font-size="10px" fill="#FFFFFF" font-family="sans-serif"> Darjeeling</text></g><g class="node" transform="translate(183.95525995285016,80.04771654431333)"><circle class="outline" cx="0" cy="0" r="25" fill="#F16667" stroke="#eb2728" stroke-width="2px"/><text text-anchor="middle" pointer-events="none" font-family="sans-serif" dy="1.5625" font-size="25" fill="#FFFFFF"/><text text-anchor="middle" pointer-events="none" y="5" font-size="10px" fill="#FFFFFF" font-family="sans-serif"> Rimbik</text></g><g class="node" transform="translate(102.12569737571773,13.756547987172386)"><circle class="outline" cx="0" cy="0" r="25" fill="#D9C8AE" stroke="#c0a378" stroke-width="2px"/><text text-anchor="middle" pointer-events="none" font-family="sans-serif" dy="1.5625" font-size="25" fill="#604A0E"/><text text-anchor="middle" pointer-events="none" y="5" font-size="10px" fill="#604A0E" font-family="sans-serif"> BhikeBh…</text></g><g class="node" transform="translate(3.370597639977859,51.5209370460396)"><circle class="outline" cx="0" cy="0" r="25" fill="#8DCC93" stroke="#5db665" stroke-width="2px"/><text text-anchor="middle" pointer-events="none" font-family="sans-serif" dy="1.5625" font-size="25" fill="#604A0E"/><text text-anchor="middle" pointer-events="none" y="5" font-size="10px" fill="#604A0E" font-family="sans-serif"> Sandak…</text></g></g></svg>